# xmcd
# 
# Track frame offsets:
#	182
#	30260
#	43410
#	78500
#	98537
#	124997
#	206972
#	242020
#	255902
#	261640
#	273280
#	282720
#
# Disc length: 4201 seconds
#
# Revision: 1
# Processed by: cddbd v1.4PL0 Copyright (c) Steve Scherf et al.
# Submitted via: Audio-CD-Archiv 2.10.446
#
DISCID=b110670c
DTITLE=Buddy Guy - Six String Frenzy
DYEAR=1900
DGENRE=blues
TTITLE0=Crosscut saw
TTITLE1=Instrumental
TTITLE2=One room country shack
TTITLE3=Dust my broom
TTITLE4=Worry is all I can do
TTITLE5=You make me feel so good jam
TTITLE6=You got to love her with a feeling
TTITLE7=The train I ride
TTITLE8=Outro
TTITLE9=I got the blues on my mind
TTITLE10=Hoochie coochie man
TTITLE11=I just wanna make love to you jam
EXTD=
EXTT0=
EXTT1=
EXTT2=
EXTT3=
EXTT4=
EXTT5=
EXTT6=
EXTT7=
EXTT8=
EXTT9=
EXTT10=
EXTT11=
PLAYORDER=
